{
    "asset" : {
        "generator" : "Khronos glTF Blender I/O v1.5.17",
        "version" : "2.0"
    },
    "scene" : 0,
    "scenes" : [
        {
            "name" : "Scene",
            "nodes" : [
                0,
                1,
                2,
                3,
                4,
                5,
                6,
                7,
                8,
                9,
                10,
                11
            ]
        }
    ],
    "nodes" : [
        {
            "name" : "tunnel_outline-noimp"
        },
        {
            "mesh" : 0,
            "name" : "tunnel_guide-noimp"
        },
        {
            "mesh" : 1,
            "name" : "tunnel-noimp"
        },
        {
            "mesh" : 2,
            "name" : "tunnel_admin_arch-noimp",
            "translation" : [
                0,
                0.009999999776482582,
                -0.20000000298023224
            ]
        },
        {
            "mesh" : 3,
            "name" : "tunnel_admin_room-noimp"
        },
        {
            "mesh" : 4,
            "name" : "tunnel_admin_doorway-noimp",
            "translation" : [
                0,
                0.019999999552965164,
                0
            ]
        },
        {
            "mesh" : 5,
            "name" : "default_cube-col"
        },
        {
            "mesh" : 6,
            "name" : "tunnel_alarm_all-noimp",
            "translation" : [
                0,
                0.009999999776482582,
                0
            ]
        },
        {
            "mesh" : 7,
            "name" : "tunnel_ele1_arch-noimp",
            "translation" : [
                0,
                0.009999999776482582,
                0.20000000298023224
            ]
        },
        {
            "mesh" : 8,
            "name" : "tunnel_ele1_tube-noimp"
        },
        {
            "mesh" : 9,
            "name" : "tunnel_ele1_shaft-noimp"
        },
        {
            "mesh" : 10,
            "name" : "tunnel_ele2_arch-noimp",
            "translation" : [
                0,
                0.009999999776482582,
                0
            ]
        }
    ],
    "materials" : [
        {
            "doubleSided" : true,
            "name" : "Material",
            "pbrMetallicRoughness" : {
                "baseColorFactor" : [
                    0.800000011920929,
                    0.800000011920929,
                    0.800000011920929,
                    1
                ],
                "metallicFactor" : 0,
                "roughnessFactor" : 0.4000000059604645
            }
        }
    ],
    "meshes" : [
        {
            "name" : "BezierCircle.001",
            "primitives" : [
                {
                    "attributes" : {
                        "POSITION" : 0,
                        "NORMAL" : 1,
                        "TEXCOORD_0" : 2
                    },
                    "indices" : 3
                }
            ]
        },
        {
            "name" : "BezierCircle.002",
            "primitives" : [
                {
                    "attributes" : {
                        "POSITION" : 4,
                        "NORMAL" : 5,
                        "TEXCOORD_0" : 6
                    },
                    "indices" : 7
                }
            ]
        },
        {
            "name" : "BezierCircle.003",
            "primitives" : [
                {
                    "attributes" : {
                        "POSITION" : 8,
                        "NORMAL" : 9,
                        "TEXCOORD_0" : 10
                    },
                    "indices" : 11
                }
            ]
        },
        {
            "name" : "Cube.003",
            "primitives" : [
                {
                    "attributes" : {
                        "POSITION" : 12,
                        "NORMAL" : 13,
                        "TEXCOORD_0" : 14
                    },
                    "indices" : 15
                }
            ]
        },
        {
            "name" : "Cube.005",
            "primitives" : [
                {
                    "attributes" : {
                        "POSITION" : 16,
                        "NORMAL" : 17,
                        "TEXCOORD_0" : 18
                    },
                    "indices" : 19
                }
            ]
        },
        {
            "name" : "Cube",
            "primitives" : [
                {
                    "attributes" : {
                        "POSITION" : 20,
                        "NORMAL" : 21,
                        "TEXCOORD_0" : 22
                    },
                    "indices" : 23,
                    "material" : 0
                }
            ]
        },
        {
            "name" : "Cube.007",
            "primitives" : [
                {
                    "attributes" : {
                        "POSITION" : 24,
                        "NORMAL" : 25,
                        "TEXCOORD_0" : 26
                    },
                    "indices" : 27
                }
            ]
        },
        {
            "name" : "BezierCircle.004",
            "primitives" : [
                {
                    "attributes" : {
                        "POSITION" : 28,
                        "NORMAL" : 29,
                        "TEXCOORD_0" : 30
                    },
                    "indices" : 11
                }
            ]
        },
        {
            "name" : "Cube.002",
            "primitives" : [
                {
                    "attributes" : {
                        "POSITION" : 31,
                        "NORMAL" : 32,
                        "TEXCOORD_0" : 33
                    },
                    "indices" : 34
                }
            ]
        },
        {
            "name" : "Cube.004",
            "primitives" : [
                {
                    "attributes" : {
                        "POSITION" : 35,
                        "NORMAL" : 36,
                        "TEXCOORD_0" : 37
                    },
                    "indices" : 38
                }
            ]
        },
        {
            "name" : "BezierCircle.005",
            "primitives" : [
                {
                    "attributes" : {
                        "POSITION" : 39,
                        "NORMAL" : 40,
                        "TEXCOORD_0" : 41
                    },
                    "indices" : 42
                }
            ]
        }
    ],
    "accessors" : [
        {
            "bufferView" : 0,
            "componentType" : 5126,
            "count" : 1824,
            "max" : [
                21.5,
                3.000000476837158,
                21.5
            ],
            "min" : [
                -21.5,
                -2.980232238769531e-07,
                -21.5
            ],
            "type" : "VEC3"
        },
        {
            "bufferView" : 1,
            "componentType" : 5126,
            "count" : 1824,
            "type" : "VEC3"
        },
        {
            "bufferView" : 2,
            "componentType" : 5126,
            "count" : 1824,
            "type" : "VEC2"
        },
        {
            "bufferView" : 3,
            "componentType" : 5123,
            "count" : 2736,
            "type" : "SCALAR"
        },
        {
            "bufferView" : 4,
            "componentType" : 5126,
            "count" : 950,
            "max" : [
                30,
                3.000000476837158,
                26.5
            ],
            "min" : [
                -21.5,
                -2.980232238769531e-07,
                -26.201601028442383
            ],
            "type" : "VEC3"
        },
        {
            "bufferView" : 5,
            "componentType" : 5126,
            "count" : 950,
            "type" : "VEC3"
        },
        {
            "bufferView" : 6,
            "componentType" : 5126,
            "count" : 950,
            "type" : "VEC2"
        },
        {
            "bufferView" : 7,
            "componentType" : 5123,
            "count" : 1470,
            "type" : "SCALAR"
        },
        {
            "bufferView" : 8,
            "componentType" : 5126,
            "count" : 114,
            "max" : [
                11.499999046325684,
                3,
                25
            ],
            "min" : [
                8.499999046325684,
                -2.384185791015625e-07,
                23.5
            ],
            "type" : "VEC3"
        },
        {
            "bufferView" : 9,
            "componentType" : 5126,
            "count" : 114,
            "type" : "VEC3"
        },
        {
            "bufferView" : 10,
            "componentType" : 5126,
            "count" : 114,
            "type" : "VEC2"
        },
        {
            "bufferView" : 11,
            "componentType" : 5123,
            "count" : 216,
            "type" : "SCALAR"
        },
        {
            "bufferView" : 12,
            "componentType" : 5126,
            "count" : 24,
            "max" : [
                12.00000286102295,
                3,
                23.005645751953125
            ],
            "min" : [
                4.9943623542785645,
                0,
                17.002830505371094
            ],
            "type" : "VEC3"
        },
        {
            "bufferView" : 13,
            "componentType" : 5126,
            "count" : 24,
            "type" : "VEC3"
        },
        {
            "bufferView" : 14,
            "componentType" : 5126,
            "count" : 24,
            "type" : "VEC2"
        },
        {
            "bufferView" : 15,
            "componentType" : 5123,
            "count" : 36,
            "type" : "SCALAR"
        },
        {
            "bufferView" : 16,
            "componentType" : 5126,
            "count" : 24,
            "max" : [
                10.499999046325684,
                2,
                24.325000762939453
            ],
            "min" : [
                9.499999046325684,
                0,
                22.799999237060547
            ],
            "type" : "VEC3"
        },
        {
            "bufferView" : 17,
            "componentType" : 5126,
            "count" : 24,
            "type" : "VEC3"
        },
        {
            "bufferView" : 18,
            "componentType" : 5126,
            "count" : 24,
            "type" : "VEC2"
        },
        {
            "bufferView" : 19,
            "componentType" : 5123,
            "count" : 36,
            "type" : "SCALAR"
        },
        {
            "bufferView" : 20,
            "componentType" : 5126,
            "count" : 1872,
            "max" : [
                40.02819061279297,
                5,
                30
            ],
            "min" : [
                -29,
                -2,
                -30.025440216064453
            ],
            "type" : "VEC3"
        },
        {
            "bufferView" : 21,
            "componentType" : 5126,
            "count" : 1872,
            "type" : "VEC3"
        },
        {
            "bufferView" : 22,
            "componentType" : 5126,
            "count" : 1872,
            "type" : "VEC2"
        },
        {
            "bufferView" : 23,
            "componentType" : 5123,
            "count" : 3252,
            "type" : "SCALAR"
        },
        {
            "bufferView" : 24,
            "componentType" : 5126,
            "count" : 184,
            "max" : [
                -19.98394203186035,
                3,
                1.9658141136169434
            ],
            "min" : [
                -25.996618270874023,
                -2.384185791015625e-07,
                -2.0454514026641846
            ],
            "type" : "VEC3"
        },
        {
            "bufferView" : 25,
            "componentType" : 5126,
            "count" : 184,
            "type" : "VEC3"
        },
        {
            "bufferView" : 26,
            "componentType" : 5126,
            "count" : 184,
            "type" : "VEC2"
        },
        {
            "bufferView" : 27,
            "componentType" : 5123,
            "count" : 342,
            "type" : "SCALAR"
        },
        {
            "bufferView" : 28,
            "componentType" : 5126,
            "count" : 114,
            "max" : [
                27.5,
                3,
                26.5
            ],
            "min" : [
                24.5,
                -2.384185791015625e-07,
                25
            ],
            "type" : "VEC3"
        },
        {
            "bufferView" : 29,
            "componentType" : 5126,
            "count" : 114,
            "type" : "VEC3"
        },
        {
            "bufferView" : 30,
            "componentType" : 5126,
            "count" : 114,
            "type" : "VEC2"
        },
        {
            "bufferView" : 31,
            "componentType" : 5126,
            "count" : 24,
            "max" : [
                26.589998245239258,
                2.2899999618530273,
                28.000001907348633
            ],
            "min" : [
                25.409997940063477,
                0.019999999552965164,
                26.000001907348633
            ],
            "type" : "VEC3"
        },
        {
            "bufferView" : 32,
            "componentType" : 5126,
            "count" : 24,
            "type" : "VEC3"
        },
        {
            "bufferView" : 33,
            "componentType" : 5126,
            "count" : 24,
            "type" : "VEC2"
        },
        {
            "bufferView" : 34,
            "componentType" : 5123,
            "count" : 36,
            "type" : "SCALAR"
        },
        {
            "bufferView" : 35,
            "componentType" : 5126,
            "count" : 24,
            "max" : [
                26.799997329711914,
                4,
                28.80000114440918
            ],
            "min" : [
                25.19999885559082,
                -1,
                27.26000213623047
            ],
            "type" : "VEC3"
        },
        {
            "bufferView" : 36,
            "componentType" : 5126,
            "count" : 24,
            "type" : "VEC3"
        },
        {
            "bufferView" : 37,
            "componentType" : 5126,
            "count" : 24,
            "type" : "VEC2"
        },
        {
            "bufferView" : 38,
            "componentType" : 5123,
            "count" : 36,
            "type" : "SCALAR"
        },
        {
            "bufferView" : 39,
            "componentType" : 5126,
            "count" : 172,
            "max" : [
                -10.142134666442871,
                4,
                -21.142135620117188
            ],
            "min" : [
                -14.455486297607422,
                -1,
                -25.455490112304688
            ],
            "type" : "VEC3"
        },
        {
            "bufferView" : 40,
            "componentType" : 5126,
            "count" : 172,
            "type" : "VEC3"
        },
        {
            "bufferView" : 41,
            "componentType" : 5126,
            "count" : 172,
            "type" : "VEC2"
        },
        {
            "bufferView" : 42,
            "componentType" : 5123,
            "count" : 318,
            "type" : "SCALAR"
        }
    ],
    "bufferViews" : [
        {
            "buffer" : 0,
            "byteLength" : 21888,
            "byteOffset" : 0
        },
        {
            "buffer" : 0,
            "byteLength" : 21888,
            "byteOffset" : 21888
        },
        {
            "buffer" : 0,
            "byteLength" : 14592,
            "byteOffset" : 43776
        },
        {
            "buffer" : 0,
            "byteLength" : 5472,
            "byteOffset" : 58368
        },
        {
            "buffer" : 0,
            "byteLength" : 11400,
            "byteOffset" : 63840
        },
        {
            "buffer" : 0,
            "byteLength" : 11400,
            "byteOffset" : 75240
        },
        {
            "buffer" : 0,
            "byteLength" : 7600,
            "byteOffset" : 86640
        },
        {
            "buffer" : 0,
            "byteLength" : 2940,
            "byteOffset" : 94240
        },
        {
            "buffer" : 0,
            "byteLength" : 1368,
            "byteOffset" : 97180
        },
        {
            "buffer" : 0,
            "byteLength" : 1368,
            "byteOffset" : 98548
        },
        {
            "buffer" : 0,
            "byteLength" : 912,
            "byteOffset" : 99916
        },
        {
            "buffer" : 0,
            "byteLength" : 432,
            "byteOffset" : 100828
        },
        {
            "buffer" : 0,
            "byteLength" : 288,
            "byteOffset" : 101260
        },
        {
            "buffer" : 0,
            "byteLength" : 288,
            "byteOffset" : 101548
        },
        {
            "buffer" : 0,
            "byteLength" : 192,
            "byteOffset" : 101836
        },
        {
            "buffer" : 0,
            "byteLength" : 72,
            "byteOffset" : 102028
        },
        {
            "buffer" : 0,
            "byteLength" : 288,
            "byteOffset" : 102100
        },
        {
            "buffer" : 0,
            "byteLength" : 288,
            "byteOffset" : 102388
        },
        {
            "buffer" : 0,
            "byteLength" : 192,
            "byteOffset" : 102676
        },
        {
            "buffer" : 0,
            "byteLength" : 72,
            "byteOffset" : 102868
        },
        {
            "buffer" : 0,
            "byteLength" : 22464,
            "byteOffset" : 102940
        },
        {
            "buffer" : 0,
            "byteLength" : 22464,
            "byteOffset" : 125404
        },
        {
            "buffer" : 0,
            "byteLength" : 14976,
            "byteOffset" : 147868
        },
        {
            "buffer" : 0,
            "byteLength" : 6504,
            "byteOffset" : 162844
        },
        {
            "buffer" : 0,
            "byteLength" : 2208,
            "byteOffset" : 169348
        },
        {
            "buffer" : 0,
            "byteLength" : 2208,
            "byteOffset" : 171556
        },
        {
            "buffer" : 0,
            "byteLength" : 1472,
            "byteOffset" : 173764
        },
        {
            "buffer" : 0,
            "byteLength" : 684,
            "byteOffset" : 175236
        },
        {
            "buffer" : 0,
            "byteLength" : 1368,
            "byteOffset" : 175920
        },
        {
            "buffer" : 0,
            "byteLength" : 1368,
            "byteOffset" : 177288
        },
        {
            "buffer" : 0,
            "byteLength" : 912,
            "byteOffset" : 178656
        },
        {
            "buffer" : 0,
            "byteLength" : 288,
            "byteOffset" : 179568
        },
        {
            "buffer" : 0,
            "byteLength" : 288,
            "byteOffset" : 179856
        },
        {
            "buffer" : 0,
            "byteLength" : 192,
            "byteOffset" : 180144
        },
        {
            "buffer" : 0,
            "byteLength" : 72,
            "byteOffset" : 180336
        },
        {
            "buffer" : 0,
            "byteLength" : 288,
            "byteOffset" : 180408
        },
        {
            "buffer" : 0,
            "byteLength" : 288,
            "byteOffset" : 180696
        },
        {
            "buffer" : 0,
            "byteLength" : 192,
            "byteOffset" : 180984
        },
        {
            "buffer" : 0,
            "byteLength" : 72,
            "byteOffset" : 181176
        },
        {
            "buffer" : 0,
            "byteLength" : 2064,
            "byteOffset" : 181248
        },
        {
            "buffer" : 0,
            "byteLength" : 2064,
            "byteOffset" : 183312
        },
        {
            "buffer" : 0,
            "byteLength" : 1376,
            "byteOffset" : 185376
        },
        {
            "buffer" : 0,
            "byteLength" : 636,
            "byteOffset" : 186752
        }
    ],
    "buffers" : [
        {
            "byteLength" : 187388,
            "uri" : "data:application/octet-stream;base64,"
        }
    ]
}
