{
    "asset" : {
        "generator" : "Khronos glTF Blender I/O v1.5.17",
        "version" : "2.0"
    },
    "scene" : 0,
    "scenes" : [
        {
            "name" : "Scene",
            "nodes" : [
                0,
                1,
                2,
                3,
                4,
                5,
                6,
                7,
                8,
                9,
                10
            ]
        }
    ],
    "nodes" : [
        {
            "mesh" : 0,
            "name" : "elevator",
            "rotation" : [
                0,
                0.7061082124710083,
                0,
                0.7081039547920227
            ]
        },
        {
            "mesh" : 1,
            "name" : "Cube.001",
            "rotation" : [
                0,
                0.7061082124710083,
                0,
                0.7081039547920227
            ]
        },
        {
            "mesh" : 2,
            "name" : "Cube.002",
            "rotation" : [
                0,
                0.7061082124710083,
                0,
                0.7081039547920227
            ]
        },
        {
            "name" : "tunnel_outline-noimp"
        },
        {
            "mesh" : 3,
            "name" : "tunnel_guide-noimp"
        },
        {
            "mesh" : 4,
            "name" : "tunnel-noimp",
            "rotation" : [
                0,
                0.7061082124710083,
                0,
                0.7081039547920227
            ],
            "translation" : [
                -5,
                0,
                0
            ]
        },
        {
            "mesh" : 5,
            "name" : "tunnel_ext-noimp",
            "rotation" : [
                0,
                0.7061082124710083,
                0,
                0.7081039547920227
            ],
            "translation" : [
                -5,
                0,
                0
            ]
        },
        {
            "mesh" : 6,
            "name" : "tunnel_ext_admin-noimp",
            "rotation" : [
                0,
                0.7061082124710083,
                0,
                0.7081039547920227
            ],
            "translation" : [
                -5,
                0,
                0
            ]
        },
        {
            "mesh" : 7,
            "name" : "tunnel_ext_door1-noimp",
            "rotation" : [
                0,
                0.7061082124710083,
                0,
                0.7081039547920227
            ],
            "translation" : [
                -5,
                0,
                0
            ]
        },
        {
            "mesh" : 8,
            "name" : "default_cube-col",
            "rotation" : [
                0,
                0.7061082124710083,
                0,
                0.7081039547920227
            ]
        },
        {
            "mesh" : 9,
            "name" : "tunnel_alarm-noimp",
            "rotation" : [
                0,
                0.9999991059303284,
                0,
                0.001411155448295176
            ],
            "translation" : [
                0,
                0,
                1
            ]
        }
    ],
    "materials" : [
        {
            "doubleSided" : true,
            "name" : "Material",
            "pbrMetallicRoughness" : {
                "baseColorFactor" : [
                    0.800000011920929,
                    0.800000011920929,
                    0.800000011920929,
                    1
                ],
                "metallicFactor" : 0,
                "roughnessFactor" : 0.4000000059604645
            }
        }
    ],
    "meshes" : [
        {
            "name" : "Cube.008",
            "primitives" : [
                {
                    "attributes" : {
                        "POSITION" : 0,
                        "NORMAL" : 1,
                        "TEXCOORD_0" : 2
                    },
                    "indices" : 3
                }
            ]
        },
        {
            "name" : "Cube.001",
            "primitives" : [
                {
                    "attributes" : {
                        "POSITION" : 4,
                        "NORMAL" : 5,
                        "TEXCOORD_0" : 6
                    },
                    "indices" : 7
                }
            ]
        },
        {
            "name" : "Cube.002",
            "primitives" : [
                {
                    "attributes" : {
                        "POSITION" : 8,
                        "NORMAL" : 9,
                        "TEXCOORD_0" : 10
                    },
                    "indices" : 7
                }
            ]
        },
        {
            "name" : "BezierCircle.001",
            "primitives" : [
                {
                    "attributes" : {
                        "POSITION" : 11,
                        "NORMAL" : 12,
                        "TEXCOORD_0" : 13
                    },
                    "indices" : 14
                }
            ]
        },
        {
            "name" : "BezierCircle.002",
            "primitives" : [
                {
                    "attributes" : {
                        "POSITION" : 15,
                        "NORMAL" : 16,
                        "TEXCOORD_0" : 17
                    },
                    "indices" : 18
                }
            ]
        },
        {
            "name" : "BezierCircle.003",
            "primitives" : [
                {
                    "attributes" : {
                        "POSITION" : 19,
                        "NORMAL" : 20,
                        "TEXCOORD_0" : 21
                    },
                    "indices" : 22
                }
            ]
        },
        {
            "name" : "Cube.003",
            "primitives" : [
                {
                    "attributes" : {
                        "POSITION" : 23,
                        "NORMAL" : 24,
                        "TEXCOORD_0" : 25
                    },
                    "indices" : 7
                }
            ]
        },
        {
            "name" : "Cube.005",
            "primitives" : [
                {
                    "attributes" : {
                        "POSITION" : 26,
                        "NORMAL" : 27,
                        "TEXCOORD_0" : 28
                    },
                    "indices" : 7
                }
            ]
        },
        {
            "name" : "Cube",
            "primitives" : [
                {
                    "attributes" : {
                        "POSITION" : 29,
                        "NORMAL" : 30,
                        "TEXCOORD_0" : 31
                    },
                    "indices" : 32,
                    "material" : 0
                }
            ]
        },
        {
            "name" : "Cube.007",
            "primitives" : [
                {
                    "attributes" : {
                        "POSITION" : 33,
                        "NORMAL" : 34,
                        "TEXCOORD_0" : 35
                    },
                    "indices" : 36
                }
            ]
        }
    ],
    "accessors" : [
        {
            "bufferView" : 0,
            "componentType" : 5126,
            "count" : 77,
            "max" : [
                -19.299999237060547,
                2.5999999046325684,
                0.699999988079071
            ],
            "min" : [
                -20.700000762939453,
                -0.10000002384185791,
                -0.699999988079071
            ],
            "type" : "VEC3"
        },
        {
            "bufferView" : 1,
            "componentType" : 5126,
            "count" : 77,
            "type" : "VEC3"
        },
        {
            "bufferView" : 2,
            "componentType" : 5126,
            "count" : 77,
            "type" : "VEC2"
        },
        {
            "bufferView" : 3,
            "componentType" : 5123,
            "count" : 132,
            "type" : "SCALAR"
        },
        {
            "bufferView" : 4,
            "componentType" : 5126,
            "count" : 24,
            "max" : [
                -18,
                3,
                -1
            ],
            "min" : [
                -22,
                0,
                -10
            ],
            "type" : "VEC3"
        },
        {
            "bufferView" : 5,
            "componentType" : 5126,
            "count" : 24,
            "type" : "VEC3"
        },
        {
            "bufferView" : 6,
            "componentType" : 5126,
            "count" : 24,
            "type" : "VEC2"
        },
        {
            "bufferView" : 7,
            "componentType" : 5123,
            "count" : 36,
            "type" : "SCALAR"
        },
        {
            "bufferView" : 8,
            "componentType" : 5126,
            "count" : 24,
            "max" : [
                -19.40999984741211,
                2.2899999618530273,
                0
            ],
            "min" : [
                -20.59000015258789,
                0.019999999552965164,
                -2
            ],
            "type" : "VEC3"
        },
        {
            "bufferView" : 9,
            "componentType" : 5126,
            "count" : 24,
            "type" : "VEC3"
        },
        {
            "bufferView" : 10,
            "componentType" : 5126,
            "count" : 24,
            "type" : "VEC2"
        },
        {
            "bufferView" : 11,
            "componentType" : 5126,
            "count" : 1824,
            "max" : [
                21.5,
                3.000000476837158,
                21.5
            ],
            "min" : [
                -21.5,
                -2.980232238769531e-07,
                -21.5
            ],
            "type" : "VEC3"
        },
        {
            "bufferView" : 12,
            "componentType" : 5126,
            "count" : 1824,
            "type" : "VEC3"
        },
        {
            "bufferView" : 13,
            "componentType" : 5126,
            "count" : 1824,
            "type" : "VEC2"
        },
        {
            "bufferView" : 14,
            "componentType" : 5123,
            "count" : 2736,
            "type" : "SCALAR"
        },
        {
            "bufferView" : 15,
            "componentType" : 5126,
            "count" : 1416,
            "max" : [
                21.5,
                3.000000476837158,
                31.5
            ],
            "min" : [
                -30,
                -2.980232238769531e-07,
                -21.5
            ],
            "type" : "VEC3"
        },
        {
            "bufferView" : 16,
            "componentType" : 5126,
            "count" : 1416,
            "type" : "VEC3"
        },
        {
            "bufferView" : 17,
            "componentType" : 5126,
            "count" : 1416,
            "type" : "VEC2"
        },
        {
            "bufferView" : 18,
            "componentType" : 5123,
            "count" : 2268,
            "type" : "SCALAR"
        },
        {
            "bufferView" : 19,
            "componentType" : 5126,
            "count" : 114,
            "max" : [
                -8.5,
                3,
                -18.5
            ],
            "min" : [
                -11.5,
                -2.384185791015625e-07,
                -20
            ],
            "type" : "VEC3"
        },
        {
            "bufferView" : 20,
            "componentType" : 5126,
            "count" : 114,
            "type" : "VEC3"
        },
        {
            "bufferView" : 21,
            "componentType" : 5126,
            "count" : 114,
            "type" : "VEC2"
        },
        {
            "bufferView" : 22,
            "componentType" : 5123,
            "count" : 216,
            "type" : "SCALAR"
        },
        {
            "bufferView" : 23,
            "componentType" : 5126,
            "count" : 24,
            "max" : [
                -7,
                3,
                -14
            ],
            "min" : [
                -13,
                0,
                -18
            ],
            "type" : "VEC3"
        },
        {
            "bufferView" : 24,
            "componentType" : 5126,
            "count" : 24,
            "type" : "VEC3"
        },
        {
            "bufferView" : 25,
            "componentType" : 5126,
            "count" : 24,
            "type" : "VEC2"
        },
        {
            "bufferView" : 26,
            "componentType" : 5126,
            "count" : 24,
            "max" : [
                -9.5,
                2,
                -17.799999237060547
            ],
            "min" : [
                -10.5,
                0,
                -19.325000762939453
            ],
            "type" : "VEC3"
        },
        {
            "bufferView" : 27,
            "componentType" : 5126,
            "count" : 24,
            "type" : "VEC3"
        },
        {
            "bufferView" : 28,
            "componentType" : 5126,
            "count" : 24,
            "type" : "VEC2"
        },
        {
            "bufferView" : 29,
            "componentType" : 5126,
            "count" : 1686,
            "max" : [
                29,
                5,
                30.025442123413086
            ],
            "min" : [
                -40.0281867980957,
                -1,
                -30
            ],
            "type" : "VEC3"
        },
        {
            "bufferView" : 30,
            "componentType" : 5126,
            "count" : 1686,
            "type" : "VEC3"
        },
        {
            "bufferView" : 31,
            "componentType" : 5126,
            "count" : 1686,
            "type" : "VEC2"
        },
        {
            "bufferView" : 32,
            "componentType" : 5123,
            "count" : 2784,
            "type" : "SCALAR"
        },
        {
            "bufferView" : 33,
            "componentType" : 5126,
            "count" : 178,
            "max" : [
                3.030707597732544,
                3,
                26.988170623779297
            ],
            "min" : [
                -2.969292402267456,
                -2.384185791015625e-07,
                20.98817253112793
            ],
            "type" : "VEC3"
        },
        {
            "bufferView" : 34,
            "componentType" : 5126,
            "count" : 178,
            "type" : "VEC3"
        },
        {
            "bufferView" : 35,
            "componentType" : 5126,
            "count" : 178,
            "type" : "VEC2"
        },
        {
            "bufferView" : 36,
            "componentType" : 5123,
            "count" : 342,
            "type" : "SCALAR"
        }
    ],
    "bufferViews" : [
        {
            "buffer" : 0,
            "byteLength" : 924,
            "byteOffset" : 0
        },
        {
            "buffer" : 0,
            "byteLength" : 924,
            "byteOffset" : 924
        },
        {
            "buffer" : 0,
            "byteLength" : 616,
            "byteOffset" : 1848
        },
        {
            "buffer" : 0,
            "byteLength" : 264,
            "byteOffset" : 2464
        },
        {
            "buffer" : 0,
            "byteLength" : 288,
            "byteOffset" : 2728
        },
        {
            "buffer" : 0,
            "byteLength" : 288,
            "byteOffset" : 3016
        },
        {
            "buffer" : 0,
            "byteLength" : 192,
            "byteOffset" : 3304
        },
        {
            "buffer" : 0,
            "byteLength" : 72,
            "byteOffset" : 3496
        },
        {
            "buffer" : 0,
            "byteLength" : 288,
            "byteOffset" : 3568
        },
        {
            "buffer" : 0,
            "byteLength" : 288,
            "byteOffset" : 3856
        },
        {
            "buffer" : 0,
            "byteLength" : 192,
            "byteOffset" : 4144
        },
        {
            "buffer" : 0,
            "byteLength" : 21888,
            "byteOffset" : 4336
        },
        {
            "buffer" : 0,
            "byteLength" : 21888,
            "byteOffset" : 26224
        },
        {
            "buffer" : 0,
            "byteLength" : 14592,
            "byteOffset" : 48112
        },
        {
            "buffer" : 0,
            "byteLength" : 5472,
            "byteOffset" : 62704
        },
        {
            "buffer" : 0,
            "byteLength" : 16992,
            "byteOffset" : 68176
        },
        {
            "buffer" : 0,
            "byteLength" : 16992,
            "byteOffset" : 85168
        },
        {
            "buffer" : 0,
            "byteLength" : 11328,
            "byteOffset" : 102160
        },
        {
            "buffer" : 0,
            "byteLength" : 4536,
            "byteOffset" : 113488
        },
        {
            "buffer" : 0,
            "byteLength" : 1368,
            "byteOffset" : 118024
        },
        {
            "buffer" : 0,
            "byteLength" : 1368,
            "byteOffset" : 119392
        },
        {
            "buffer" : 0,
            "byteLength" : 912,
            "byteOffset" : 120760
        },
        {
            "buffer" : 0,
            "byteLength" : 432,
            "byteOffset" : 121672
        },
        {
            "buffer" : 0,
            "byteLength" : 288,
            "byteOffset" : 122104
        },
        {
            "buffer" : 0,
            "byteLength" : 288,
            "byteOffset" : 122392
        },
        {
            "buffer" : 0,
            "byteLength" : 192,
            "byteOffset" : 122680
        },
        {
            "buffer" : 0,
            "byteLength" : 288,
            "byteOffset" : 122872
        },
        {
            "buffer" : 0,
            "byteLength" : 288,
            "byteOffset" : 123160
        },
        {
            "buffer" : 0,
            "byteLength" : 192,
            "byteOffset" : 123448
        },
        {
            "buffer" : 0,
            "byteLength" : 20232,
            "byteOffset" : 123640
        },
        {
            "buffer" : 0,
            "byteLength" : 20232,
            "byteOffset" : 143872
        },
        {
            "buffer" : 0,
            "byteLength" : 13488,
            "byteOffset" : 164104
        },
        {
            "buffer" : 0,
            "byteLength" : 5568,
            "byteOffset" : 177592
        },
        {
            "buffer" : 0,
            "byteLength" : 2136,
            "byteOffset" : 183160
        },
        {
            "buffer" : 0,
            "byteLength" : 2136,
            "byteOffset" : 185296
        },
        {
            "buffer" : 0,
            "byteLength" : 1424,
            "byteOffset" : 187432
        },
        {
            "buffer" : 0,
            "byteLength" : 684,
            "byteOffset" : 188856
        }
    ],
    "buffers" : [
        {
            "byteLength" : 189540,
            "uri" : "data:application/octet-stream;base64,"
        }
    ]
}
